<svg xmlns="http://www.w3.org/2000/svg" width="500" height="500" viewBox="0 0 500 500" version="1.1"><path d="M 269.193 51.099 C 252.062 52.333, 219.192 57.018, 218.404 58.339 C 217.078 60.562, 204.499 94.139, 196.053 118 C 189.920 135.325, 180.424 162.102, 174.951 177.504 C 169.478 192.906, 165 206.308, 165 207.285 C 165 210.121, 167.216 210.281, 177.673 208.197 C 183.078 207.120, 187.643 206.365, 187.818 206.520 C 187.993 206.676, 186.914 210.245, 185.420 214.453 C 181.879 224.427, 182.268 224.816, 193.544 222.577 C 198.301 221.632, 202.401 221.067, 202.655 221.321 C 202.909 221.575, 201.021 226.220, 198.461 231.642 C 185.464 259.161, 166 308.691, 166 314.243 C 166 317.241, 168.745 317.386, 174.786 314.708 C 181.480 311.740, 188.808 309.475, 189.495 310.162 C 189.760 310.427, 188.580 314.812, 186.872 319.905 C 183.357 330.386, 183.749 332.288, 189.014 330.301 C 190.656 329.681, 192 329.337, 192 329.537 C 192 329.854, 175.392 369.337, 156.057 414.985 C 149.934 429.441, 149.069 433.500, 152.109 433.500 C 152.995 433.500, 157.905 428.325, 163.022 422 C 172.301 410.528, 190.051 390, 190.690 390 C 190.875 390, 190.411 391.462, 189.658 393.250 C 188.905 395.037, 183.672 407.417, 178.030 420.760 C 169.602 440.689, 167.992 445.286, 169.008 446.510 C 171.052 448.973, 172.272 448.213, 177.500 441.222 C 184.996 431.198, 203.511 409.788, 222.912 388.711 C 237.932 372.393, 254.307 355.195, 303.250 304.337 C 309.163 298.194, 314 292.509, 314 291.706 C 314 289.038, 311.552 288.145, 300.808 286.896 L 290.159 285.658 292.656 282.384 C 294.096 280.497, 295.015 278.134, 294.827 276.805 C 294.533 274.735, 293.762 274.414, 287.250 273.655 C 283.191 273.182, 280 272.330, 280 271.718 C 280 267.835, 303.509 231.813, 331.209 193.251 C 339.715 181.411, 339.263 180.753, 321.723 179.424 L 312.946 178.759 315.473 175.446 C 318.215 171.851, 318.728 168.586, 316.750 167.315 C 316.063 166.873, 310.014 166.059, 303.310 165.506 L 291.119 164.500 303.684 145 C 322.271 116.154, 350.611 71.596, 351.885 69.215 C 352.759 67.582, 352.661 66.804, 351.427 65.569 C 350.201 64.344, 347.570 64, 339.429 64 C 333.693 64, 329 63.775, 329 63.501 C 329 63.226, 330.226 60.806, 331.724 58.123 C 336.281 49.961, 336.324 49.975, 306.128 50.143 C 292.032 50.221, 275.412 50.652, 269.193 51.099 M 263.500 57.148 C 252.500 57.612, 238.168 58.331, 231.651 58.746 L 219.803 59.500 216.471 70.500 C 213.158 81.440, 177.604 188.234, 174.291 197.195 C 173.337 199.776, 172.797 202.130, 173.091 202.424 C 173.385 202.719, 175.562 202.629, 177.927 202.225 L 182.228 201.491 189.674 180.496 C 193.769 168.948, 197.530 159.085, 198.032 158.578 C 199.111 157.487, 195.796 168.458, 189.594 186.500 C 185.341 198.875, 185.222 199.516, 187.136 199.829 C 188.241 200.010, 189.740 199.930, 190.466 199.652 C 191.192 199.373, 193.671 193.487, 195.976 186.572 C 198.280 179.658, 200.578 174, 201.083 174 C 202.239 174, 202.521 172.747, 198.489 185.500 C 196.576 191.550, 195.009 196.838, 195.006 197.250 C 195.003 197.662, 196.366 198, 198.036 198 C 201.137 198, 201.955 196.798, 206.124 186.111 C 207.980 181.354, 207.958 184.816, 206.097 190.459 L 204.187 196.246 208.844 195.468 C 211.405 195.040, 215.300 194.647, 217.500 194.595 C 220.784 194.517, 221.547 194.858, 221.763 196.500 C 221.908 197.600, 218.942 204.450, 215.173 211.722 C 200.395 240.233, 185.880 273.648, 176.996 299.612 L 174.220 307.724 178.044 306.595 C 180.147 305.974, 182.182 305.151, 182.566 304.767 C 182.951 304.382, 184.930 298.990, 186.964 292.784 C 190.344 282.468, 194.848 272.137, 194.956 274.451 C 194.980 274.974, 192.946 281.658, 190.435 289.303 C 187.925 296.949, 186.012 303.319, 186.185 303.460 C 186.358 303.601, 188.150 303.510, 190.168 303.258 C 193.579 302.832, 193.953 302.440, 195.518 297.650 C 196.444 294.818, 197.813 291.375, 198.561 290 C 199.867 287.597, 199.921 287.585, 199.960 289.685 C 199.982 290.887, 199.616 292.912, 199.146 294.185 C 198.677 295.458, 197.997 297.723, 197.635 299.219 C 196.980 301.928, 196.996 301.937, 202.100 301.719 C 205.780 301.562, 207.503 301.931, 208.217 303.029 C 208.959 304.171, 206.371 311.252, 197.981 331.029 C 178.462 377.036, 165.106 409.296, 165.955 408.383 C 166.406 407.897, 169.165 404.575, 172.086 401 C 188.937 380.374, 212.907 354.297, 253.867 312.027 L 284.365 280.554 280.933 279.737 C 279.045 279.287, 270.300 278.825, 261.500 278.709 L 245.500 278.500 245.180 275.718 C 244.959 273.790, 247.039 268.773, 251.958 259.373 C 262.871 238.516, 275.693 218.652, 301.221 183.059 L 308.077 173.500 303.788 172.884 C 301.071 172.494, 299.258 172.677, 298.839 173.384 C 297.647 175.395, 271.844 208.462, 270.266 210 C 266.916 213.265, 272.728 204.621, 284.189 189.293 C 290.683 180.607, 295.997 173.162, 295.998 172.750 C 295.999 172.338, 294.054 172, 291.675 172 C 287.423 172, 287.256 172.131, 281.781 179.778 C 278.718 184.056, 274.590 189.499, 272.606 191.873 C 266.259 199.470, 268.745 194.485, 276.500 184.065 C 280.625 178.522, 284 173.765, 284 173.494 C 284 173.222, 282.297 173, 280.216 173 C 277.165 173, 276.102 173.533, 274.734 175.750 C 273.800 177.262, 271.650 180.075, 269.955 182 L 266.874 185.500 269.967 179.750 C 273.599 172.999, 273.857 173.120, 261.028 175.554 C 252.343 177.202, 249.349 176.509, 250.291 173.070 C 250.527 172.206, 265.757 148.325, 284.135 120 C 324.930 57.125, 324 58.590, 324 57.162 C 324 55.801, 295.558 55.794, 263.500 57.148" stroke="none" fill="#ffffff" fill-rule="evenodd"/><path d="M 300.776 49.733 C 303.128 49.945, 306.728 49.942, 308.776 49.727 C 310.824 49.512, 308.900 49.339, 304.500 49.343 C 300.100 49.346, 298.424 49.522, 300.776 49.733 M 273.750 50.706 C 274.988 50.944, 277.012 50.944, 278.250 50.706 C 279.488 50.467, 278.475 50.272, 276 50.272 C 273.525 50.272, 272.512 50.467, 273.750 50.706 M 259.250 51.689 C 260.212 51.941, 261.788 51.941, 262.750 51.689 C 263.712 51.438, 262.925 51.232, 261 51.232 C 259.075 51.232, 258.288 51.438, 259.250 51.689 M 263.500 57.148 C 252.500 57.612, 238.168 58.331, 231.651 58.746 L 219.803 59.500 216.471 70.500 C 213.158 81.440, 177.604 188.234, 174.291 197.195 C 173.337 199.776, 172.797 202.130, 173.091 202.424 C 173.385 202.719, 175.562 202.629, 177.927 202.225 L 182.228 201.491 189.674 180.496 C 193.769 168.948, 197.530 159.085, 198.032 158.578 C 199.111 157.487, 195.796 168.458, 189.594 186.500 C 185.341 198.875, 185.222 199.516, 187.136 199.829 C 188.241 200.010, 189.740 199.930, 190.466 199.652 C 191.192 199.373, 193.671 193.487, 195.976 186.572 C 198.280 179.658, 200.578 174, 201.083 174 C 202.239 174, 202.521 172.747, 198.489 185.500 C 196.576 191.550, 195.009 196.838, 195.006 197.250 C 195.003 197.662, 196.366 198, 198.036 198 C 201.137 198, 201.955 196.798, 206.124 186.111 C 207.980 181.354, 207.958 184.816, 206.097 190.459 L 204.187 196.246 208.844 195.468 C 211.405 195.040, 215.300 194.647, 217.500 194.595 C 220.784 194.517, 221.547 194.858, 221.763 196.500 C 221.908 197.600, 218.942 204.450, 215.173 211.722 C 200.395 240.233, 185.880 273.648, 176.996 299.612 L 174.220 307.724 178.044 306.595 C 180.147 305.974, 182.182 305.151, 182.566 304.767 C 182.951 304.382, 184.930 298.990, 186.964 292.784 C 190.344 282.468, 194.848 272.137, 194.956 274.451 C 194.980 274.974, 192.946 281.658, 190.435 289.303 C 187.925 296.949, 186.012 303.319, 186.185 303.460 C 186.358 303.601, 188.215 303.503, 190.312 303.241 C 193.103 302.894, 193.977 302.382, 193.574 301.331 C 193.226 300.426, 193.446 300.158, 194.169 300.604 C 194.948 301.086, 195.135 300.623, 194.751 299.156 C 194.441 297.970, 194.534 297, 194.958 297 C 195.382 297, 196.558 294.863, 197.573 292.250 C 199.933 286.173, 200.663 289.029, 198.560 296.111 C 197.702 299, 197 301.492, 197 301.649 C 197 301.807, 199.300 301.838, 202.111 301.718 C 205.780 301.561, 207.503 301.932, 208.217 303.029 C 208.959 304.171, 206.371 311.252, 197.981 331.029 C 182.975 366.400, 165.197 409, 165.443 409 C 165.552 409, 167.896 406.188, 170.652 402.750 C 184.711 385.214, 220.255 345.850, 235.250 331.210 C 241.713 324.900, 247 319.309, 247 318.786 C 247 318.263, 255.409 309.555, 265.686 299.436 C 275.963 289.317, 284.143 280.809, 283.863 280.530 C 282.514 279.181, 263.568 278.137, 254.476 278.910 C 243.975 279.804, 242.976 279.504, 243.086 275.500 L 243.141 273.500 244.084 275.500 C 244.893 277.214, 244.974 277.106, 244.653 274.750 C 244.446 273.238, 244.691 272, 245.198 272 C 245.704 272, 245.840 271.550, 245.500 271 C 245.160 270.450, 245.385 270, 246 270 C 246.615 270, 246.840 269.550, 246.500 269 C 246.160 268.450, 246.385 268, 247 268 C 247.615 268, 247.840 267.550, 247.500 267 C 247.160 266.450, 247.344 266, 247.910 266 C 248.475 266, 248.692 265.360, 248.391 264.577 C 248.091 263.795, 248.743 262.257, 249.839 261.161 C 250.936 260.064, 251.571 258.904, 251.250 258.583 C 250.929 258.263, 251.192 258, 251.833 258 C 252.475 258, 252.911 257.662, 252.802 257.250 C 252.395 255.712, 254.178 251.992, 255.061 252.537 C 255.565 252.849, 255.711 252.409, 255.385 251.560 C 255.036 250.652, 255.450 249.764, 256.391 249.404 C 257.269 249.066, 257.740 248.388, 257.435 247.895 C 257.131 247.403, 257.385 247, 258 247 C 258.615 247, 258.838 246.547, 258.496 245.993 C 258.153 245.439, 258.574 244.717, 259.431 244.388 C 260.288 244.059, 260.740 243.388, 260.435 242.895 C 260.131 242.403, 260.434 242, 261.108 242 C 261.782 242, 262.071 241.737, 261.750 241.417 C 261.429 241.096, 261.837 240.083, 262.656 239.167 C 263.475 238.250, 269.193 229.850, 275.363 220.500 C 281.532 211.150, 291.411 196.750, 297.315 188.500 L 308.050 173.500 303.775 172.884 C 301.068 172.494, 299.258 172.678, 298.839 173.384 C 297.684 175.333, 271.872 208.435, 270.286 210 C 268.931 211.338, 268.878 211.281, 269.796 209.478 C 270.363 208.366, 272.890 204.653, 275.411 201.228 C 277.933 197.803, 279.686 195, 279.307 195 C 278.928 195, 279.299 194.438, 280.131 193.750 C 281.972 192.230, 292.225 179, 291.562 179 C 291.303 179, 292.195 177.895, 293.545 176.545 C 297.041 173.050, 296.609 172, 291.675 172 C 287.423 172, 287.256 172.131, 281.781 179.778 C 275.437 188.639, 269 196.539, 269 195.463 C 269 194.380, 273.290 187.552, 274.214 187.165 C 274.653 186.980, 274.772 186.440, 274.478 185.965 C 274.184 185.489, 274.895 184.591, 276.058 183.969 C 277.220 183.347, 277.971 182.637, 277.725 182.392 C 277.480 182.147, 278.792 180.295, 280.640 178.278 C 282.488 176.260, 284 174.247, 284 173.805 C 284 173.362, 282.313 173.022, 280.250 173.048 C 276.867 173.091, 276.112 173.638, 272.533 178.629 C 268.582 184.139, 263.700 188.288, 265.830 184.326 C 266.369 183.322, 268.248 180.700, 270.005 178.500 L 273.199 174.500 270.458 174.170 C 268.951 173.988, 267.443 174.213, 267.109 174.670 C 266.774 175.126, 264.522 175.572, 262.104 175.659 C 259.687 175.746, 256.620 176.401, 255.289 177.113 C 253.537 178.051, 252.405 178.115, 251.185 177.347 C 249.252 176.130, 248.374 173.037, 249.700 172.120 C 251.048 171.188, 255.230 165, 254.512 165 C 254.168 165, 254.670 163.674, 255.627 162.054 C 256.584 160.434, 257.746 159.343, 258.208 159.629 C 258.671 159.915, 258.985 159.778, 258.906 159.324 C 258.536 157.194, 259.106 155.948, 260.155 156.595 C 260.856 157.029, 261.038 156.871, 260.618 156.191 C 260.238 155.576, 260.843 154.157, 261.964 153.036 C 263.084 151.916, 263.663 150.986, 263.250 150.968 C 262.837 150.951, 263.374 150.276, 264.441 149.468 C 265.509 148.661, 265.985 148, 265.500 148 C 265.015 148, 265.491 147.339, 266.559 146.532 C 267.626 145.724, 268.137 145.049, 267.693 145.032 C 267.250 145.014, 267.670 143.674, 268.627 142.054 C 269.584 140.434, 270.804 139.379, 271.338 139.709 C 271.872 140.039, 271.998 139.806, 271.618 139.191 C 271.238 138.576, 271.843 137.157, 272.964 136.036 C 274.084 134.916, 274.663 133.986, 274.250 133.968 C 273.837 133.951, 274.374 133.276, 275.441 132.468 C 276.509 131.661, 277.046 131, 276.635 131 C 276.223 131, 276.670 129.674, 277.627 128.054 C 278.584 126.434, 279.804 125.379, 280.338 125.709 C 280.873 126.039, 280.990 125.792, 280.598 125.159 C 280.197 124.510, 281.111 122.845, 282.694 121.341 C 284.237 119.873, 284.891 119.027, 284.146 119.460 C 283.245 119.983, 283.367 119.370, 284.511 117.623 C 285.457 116.180, 286.655 115, 287.174 115 C 287.693 115, 287.857 114.578, 287.538 114.061 C 287.219 113.545, 287.755 112.659, 288.729 112.092 C 289.703 111.525, 290.137 111.047, 289.693 111.030 C 289.250 111.014, 289.670 109.674, 290.627 108.054 C 291.584 106.434, 292.804 105.379, 293.338 105.709 C 293.873 106.039, 293.990 105.792, 293.598 105.159 C 293.197 104.510, 294.111 102.845, 295.694 101.341 C 297.237 99.873, 297.825 99.005, 297 99.411 C 296.076 99.865, 296.166 99.602, 297.234 98.725 C 298.188 97.943, 298.686 97.020, 298.341 96.675 C 297.996 96.329, 298.451 95.764, 299.351 95.419 C 300.252 95.073, 300.738 94.384, 300.431 93.888 C 300.124 93.392, 300.574 92.717, 301.431 92.388 C 302.288 92.059, 302.757 91.415, 302.473 90.957 C 302.190 90.498, 302.755 89.659, 303.729 89.092 C 304.703 88.525, 305.184 88.047, 304.798 88.030 C 304.412 88.014, 305.191 86.818, 306.529 85.374 C 307.867 83.930, 308.719 82.355, 308.422 81.874 C 308.125 81.393, 308.385 81, 309 81 C 309.615 81, 309.869 80.597, 309.565 80.105 C 309.260 79.612, 309.684 78.952, 310.506 78.636 C 311.328 78.321, 312 77.374, 312 76.531 C 312 75.689, 312.477 75, 313.059 75 C 313.641 75, 313.840 74.550, 313.500 74 C 313.160 73.450, 313.312 73, 313.837 73 C 314.926 73, 324 58.815, 324 57.114 C 324 55.806, 294.900 55.822, 263.500 57.148 M 304.762 165.707 C 306.006 165.946, 307.806 165.937, 308.762 165.687 C 309.718 165.437, 308.700 165.241, 306.500 165.252 C 304.300 165.263, 303.518 165.468, 304.762 165.707 M 295.116 277.550 C 295.052 278.678, 294.552 280.142, 294.004 280.804 C 293.456 281.466, 293.724 281.384, 294.600 280.622 C 295.476 279.860, 295.976 278.396, 295.712 277.368 C 295.279 275.684, 295.221 275.702, 295.116 277.550 M 301 306.500 C 296.903 310.625, 293.775 314, 294.050 314 C 294.325 314, 297.903 310.625, 302 306.500 C 306.097 302.375, 309.225 299, 308.950 299 C 308.675 299, 305.097 302.375, 301 306.500 M 273.469 335.250 L 267.500 341.500 273.750 335.531 C 279.556 329.987, 280.458 329, 279.719 329 C 279.564 329, 276.751 331.813, 273.469 335.250 M 247.946 361.750 L 244.500 365.500 248.250 362.054 C 251.740 358.846, 252.460 358, 251.696 358 C 251.529 358, 249.842 359.688, 247.946 361.750 M 232.437 378.250 L 229.500 381.500 232.750 378.563 C 234.537 376.948, 236 375.485, 236 375.313 C 236 374.540, 235.175 375.221, 232.437 378.250 M 187.924 392.720 C 186.591 394.216, 186.216 394.894, 187.092 394.228 C 187.968 393.562, 188.980 393.238, 189.342 393.509 C 189.704 393.779, 189.779 393.704, 189.509 393.342 C 189.238 392.980, 189.519 392.080, 190.131 391.342 C 192.217 388.829, 190.358 389.989, 187.924 392.720" stroke="none" fill="#feb453" fill-rule="evenodd"/></svg>